<svg width="75" height="75" viewBox="0 0 75 75" fill="none" xmlns="http://www.w3.org/2000/svg">
<g clip-path="url(#clip0_3253_426)" filter="url(#filter0_i_3253_426)">
<path d="M39.0939 41.2938C39.2376 38.7938 40.4626 36.5875 42.3126 35.025C44.2536 33.4128 46.7019 32.5384 49.2251 32.5563C51.8814 32.5563 54.322 33.4938 56.1345 35.025C57.9845 36.5875 59.2064 38.7938 59.347 41.2906C59.4876 43.8625 58.4564 46.2469 56.6439 48.0188C54.6475 49.9254 51.9855 50.9772 49.2251 50.95C46.4628 50.9775 43.7988 49.9258 41.8001 48.0188C39.9876 46.2469 38.9532 43.8625 39.0939 41.2938ZM22.9689 46.3469C22.9876 47.3281 23.3001 49.2281 23.7689 50.7156C24.7808 53.9159 26.4798 56.8563 28.747 59.3313C31.1784 62.0045 34.146 64.1352 37.4564 65.5844C41.0591 67.1725 44.9567 67.9819 48.8939 67.9594C52.8304 67.9671 56.7244 67.1451 60.322 65.5469C63.6299 64.084 66.5947 61.9443 69.0251 59.2656C71.2886 56.7825 72.986 53.8376 74.0001 50.6344C74.9752 47.5309 75.2422 44.2484 74.7814 41.0281C74.3426 37.943 73.2609 34.9844 71.6064 32.3438C70.0736 29.8874 68.1135 27.7251 65.8189 25.9594H65.8251L42.3939 7.96876L42.3314 7.92188C40.7939 6.74063 38.2095 6.74688 36.5189 7.92813C34.8095 9.12188 34.6157 11.1 36.1345 12.35L36.1314 12.3531L45.9001 20.3L16.1189 20.3313H16.0782C13.6157 20.3344 11.2501 21.95 10.7814 23.9938C10.3001 26.0719 11.9689 27.7969 14.5314 27.8063V27.8125L29.6251 27.7813L2.68761 48.4594L2.58136 48.5375C0.0407351 50.4813 -0.778015 53.7188 0.821985 55.7656C2.44699 57.85 5.90011 57.8531 8.46886 55.7781L23.1689 43.75C23.1689 43.75 22.9501 45.375 22.9689 46.3469ZM60.7501 51.7875C57.7189 54.875 53.4814 56.625 48.8907 56.6313C44.297 56.6438 40.0564 54.9063 37.0251 51.825C35.5938 50.3881 34.4895 48.6591 33.7876 46.7563C33.1444 44.9659 32.8902 43.0591 33.0422 41.1628C33.1942 39.2665 33.7487 37.4244 34.6689 35.7594C35.5842 34.1136 36.8075 32.659 38.272 31.475C41.2157 29.075 44.9626 27.7781 48.8845 27.7719C52.8095 27.7656 56.5564 29.0531 59.5032 31.4438C61.0032 32.6656 62.222 34.1125 63.1032 35.7156C64.0154 37.3584 64.5713 39.1749 64.7345 41.0469C64.9001 42.9652 64.6452 44.8966 63.9876 46.7063C63.2856 48.612 62.1795 50.3448 60.7501 51.7875Z" fill="black"/>
</g>
<defs>
<filter id="filter0_i_3253_426" x="0" y="0" width="75" height="77" filterUnits="userSpaceOnUse" color-interpolation-filters="sRGB">
<feFlood flood-opacity="0" result="BackgroundImageFix"/>
<feBlend mode="normal" in="SourceGraphic" in2="BackgroundImageFix" result="shape"/>
<feColorMatrix in="SourceAlpha" type="matrix" values="0 0 0 0 0 0 0 0 0 0 0 0 0 0 0 0 0 0 127 0" result="hardAlpha"/>
<feOffset dy="2"/>
<feGaussianBlur stdDeviation="2"/>
<feComposite in2="hardAlpha" operator="arithmetic" k2="-1" k3="1"/>
<feColorMatrix type="matrix" values="0 0 0 0 0 0 0 0 0 0 0 0 0 0 0 0 0 0 0.25 0"/>
<feBlend mode="normal" in2="shape" result="effect1_innerShadow_3253_426"/>
</filter>
<clipPath id="clip0_3253_426">
<rect width="75" height="75" fill="white"/>
</clipPath>
</defs>
</svg>
