<svg width="92" height="92" viewBox="0 0 92 92" fill="none" xmlns="http://www.w3.org/2000/svg">
<path d="M46.0001 37.7592L33.6388 46L46.0001 54.2409L58.3613 46L46.0001 37.7592ZM66.6251 40.4909L78.9863 32.25L50.5834 13.3163V29.798L66.6251 40.4909ZM82.6667 40.8117L74.8888 46L82.6667 51.1884V40.8117ZM66.6251 51.5092L50.5834 62.2021V78.6838L78.9863 59.75L66.6251 51.5092ZM41.4167 29.798V13.3163L13.0138 32.25L25.3751 40.4909L41.4167 29.798ZM13.0138 59.75L41.4167 78.6838V62.2021L25.3751 51.5092L13.0138 59.75ZM17.1113 46L9.33341 40.8117V51.1884L17.1113 46ZM0.166748 32.25C0.166635 31.4957 0.35273 30.7529 0.708521 30.0877C1.06431 29.4225 1.5788 28.8554 2.20633 28.4367L43.4563 0.936701C44.2095 0.434189 45.0947 0.166016 46.0001 0.166016C46.9055 0.166016 47.7906 0.434189 48.5438 0.936701L89.7938 28.4367C90.4214 28.8554 90.9358 29.4225 91.2916 30.0877C91.6474 30.7529 91.8335 31.4957 91.8334 32.25V59.75C91.8335 60.5044 91.6474 61.2472 91.2916 61.9124C90.9358 62.5776 90.4214 63.1447 89.7938 63.5634L48.5438 91.0634C47.7906 91.5659 46.9055 91.834 46.0001 91.834C45.0947 91.834 44.2095 91.5659 43.4563 91.0634L2.20633 63.5634C1.5788 63.1447 1.06431 62.5776 0.708521 61.9124C0.35273 61.2472 0.166635 60.5044 0.166748 59.75V32.25Z" fill="#3CC9A9"/>
</svg>
