<svg width="75" height="75" viewBox="0 0 75 75" fill="none" xmlns="http://www.w3.org/2000/svg">
<g clip-path="url(#clip0_3253_362)" filter="url(#filter0_i_3253_362)">
<path d="M23.4437 0H31.5V3.36875H26.8125V6.7375H31.5V10.1062H23.4437V0ZM33.1094 0H41.1687V2.93125H36.4812V3.51562H41.1687V10.2531H33.1094V7.17812H37.7969V6.59062H33.1094V0ZM42.7812 0H50.8344V2.93125H46.1469V3.51562H50.8344V10.2531H42.7812V7.17812H47.4687V6.59062H42.7812V0Z" fill="black"/>
<path fill-rule="evenodd" clip-rule="evenodd" d="M37.4719 75L15.7719 68.975L9.375 14.7406H65.625L59.2313 68.9687L37.4719 75ZM22.0219 39.2906L22.6187 45.9406H45.6719L44.9 54.5656L37.4813 56.5719H37.475L30.0687 54.5718L29.5938 49.2687H22.9156L23.8469 59.7125L37.4719 63.4937L51.1187 59.7125L52.7812 41.075L52.9437 39.2906L54.1437 25.825H20.825L21.4312 32.4781H46.8563L46.25 39.2906H22.0219Z" fill="black"/>
</g>
<defs>
<filter id="filter0_i_3253_362" x="0" y="0" width="75" height="77" filterUnits="userSpaceOnUse" color-interpolation-filters="sRGB">
<feFlood flood-opacity="0" result="BackgroundImageFix"/>
<feBlend mode="normal" in="SourceGraphic" in2="BackgroundImageFix" result="shape"/>
<feColorMatrix in="SourceAlpha" type="matrix" values="0 0 0 0 0 0 0 0 0 0 0 0 0 0 0 0 0 0 127 0" result="hardAlpha"/>
<feOffset dy="2"/>
<feGaussianBlur stdDeviation="2"/>
<feComposite in2="hardAlpha" operator="arithmetic" k2="-1" k3="1"/>
<feColorMatrix type="matrix" values="0 0 0 0 0 0 0 0 0 0 0 0 0 0 0 0 0 0 0.25 0"/>
<feBlend mode="normal" in2="shape" result="effect1_innerShadow_3253_362"/>
</filter>
<clipPath id="clip0_3253_362">
<rect width="75" height="75" fill="white"/>
</clipPath>
</defs>
</svg>
