<svg width="75" height="75" viewBox="0 0 75 75" fill="none" xmlns="http://www.w3.org/2000/svg">
<g clip-path="url(#clip0_3552_55)">
<path d="M23.4438 0H31.5001V3.36875H26.8126V6.7375H31.5001V10.1062H23.4438V0ZM33.1095 0H41.1688V2.93125H36.4813V3.51562H41.1688V10.2531H33.1095V7.17812H37.797V6.59062H33.1095V0ZM42.7813 0H50.8345V2.93125H46.147V3.51562H50.8345V10.2531H42.7813V7.17812H47.4688V6.59062H42.7813V0Z" fill="black"/>
<path fill-rule="evenodd" clip-rule="evenodd" d="M37.4719 75L15.7719 68.975L9.375 14.7406H65.625L59.2313 68.9688L37.4719 75ZM22.0219 39.2906L22.6187 45.9406H45.6719L44.9 54.5656L37.4813 56.5719H37.475L30.0687 54.5719L29.5938 49.2687H22.9156L23.8469 59.7125L37.4719 63.4938L51.1187 59.7125L52.7812 41.075L52.9437 39.2906L54.1438 25.825H20.825L21.4312 32.4781H46.8563L46.25 39.2906H22.0219Z" fill="black"/>
</g>
<defs>
<clipPath id="clip0_3552_55">
<rect width="75" height="75" fill="white"/>
</clipPath>
</defs>
</svg>
