<svg width="75" height="75" viewBox="0 0 75 75" fill="none" xmlns="http://www.w3.org/2000/svg">
<g filter="url(#filter0_i_3253_338)">
<path fill-rule="evenodd" clip-rule="evenodd" d="M25.3931 28.144C24.1606 28.144 22.9401 28.386 21.8013 28.8561C20.6626 29.3262 19.6279 30.0152 18.7563 30.8838C17.8848 31.7524 17.1934 32.7836 16.7217 33.9185C16.25 35.0534 16.0073 36.2698 16.0073 37.4982C16.0073 38.7266 16.25 39.943 16.7217 41.0779C17.1934 42.2128 17.8848 43.244 18.7563 44.1126C19.6279 44.9812 20.6626 45.6702 21.8013 46.1403C22.9401 46.6104 24.1606 46.8523 25.3931 46.8523H34.779V37.6865C34.7775 37.561 34.7775 37.4354 34.779 37.3099V28.144H25.3931ZM34.779 22.7119H25.3931C22.9034 22.7119 20.5156 21.7262 18.755 19.9716C16.9945 18.217 16.0055 15.8373 16.0055 13.356C16.0055 10.8746 16.9945 8.49488 18.755 6.7403C20.5156 4.98571 22.9034 4 25.3931 4H34.779V22.7119ZM40.2295 4V22.7119H49.6154C52.0732 22.6637 54.414 21.6568 56.135 19.9075C57.8561 18.1582 58.8202 15.8059 58.8202 13.356C58.8202 10.906 57.8561 8.55375 56.135 6.80442C54.414 5.05509 52.0732 4.04819 49.6154 4H40.2295ZM49.6154 28.1404C47.1517 28.1401 44.7867 29.1052 43.0307 30.8275C41.2747 32.5497 40.2686 34.891 40.2295 37.3461V37.6467C40.2596 39.49 40.8355 41.2833 41.885 42.8015C42.9344 44.3196 44.4106 45.4948 46.1281 46.1796C47.8455 46.8643 49.7277 47.028 51.5382 46.65C53.3487 46.2721 55.0068 45.3694 56.3042 44.0554C57.6017 42.7413 58.4805 41.0745 58.8305 39.2643C59.1805 37.454 58.9859 35.581 58.2712 33.8806C57.5566 32.1802 56.3537 30.7282 54.8137 29.7069C53.2737 28.6857 51.4652 28.1407 49.6154 28.1404ZM25.3931 52.2845C23.5359 52.2838 21.7202 52.832 20.1756 53.8598C18.631 54.8876 17.427 56.3488 16.7158 58.0587C16.0046 59.7685 15.8181 61.6502 16.18 63.4656C16.5419 65.2811 17.4358 66.9488 18.7488 68.2579C20.0618 69.567 21.7349 70.4586 23.5564 70.8199C25.3778 71.1813 27.2659 70.9962 28.9819 70.288C30.6978 69.5799 32.1644 68.3805 33.1963 66.8415C34.2282 65.3026 34.779 63.4932 34.779 61.6422V52.2845H25.3931Z" fill="black"/>
</g>
<defs>
<filter id="filter0_i_3253_338" x="0" y="1.52588e-05" width="75" height="77" filterUnits="userSpaceOnUse" color-interpolation-filters="sRGB">
<feFlood flood-opacity="0" result="BackgroundImageFix"/>
<feBlend mode="normal" in="SourceGraphic" in2="BackgroundImageFix" result="shape"/>
<feColorMatrix in="SourceAlpha" type="matrix" values="0 0 0 0 0 0 0 0 0 0 0 0 0 0 0 0 0 0 127 0" result="hardAlpha"/>
<feOffset dy="2"/>
<feGaussianBlur stdDeviation="2"/>
<feComposite in2="hardAlpha" operator="arithmetic" k2="-1" k3="1"/>
<feColorMatrix type="matrix" values="0 0 0 0 0 0 0 0 0 0 0 0 0 0 0 0 0 0 0.25 0"/>
<feBlend mode="normal" in2="shape" result="effect1_innerShadow_3253_338"/>
</filter>
</defs>
</svg>
