<svg width="75" height="75" viewBox="0 0 75 75" fill="none" xmlns="http://www.w3.org/2000/svg">
<mask id="mask0_3253_322" style="mask-type:luminance" maskUnits="userSpaceOnUse" x="0" y="0" width="75" height="75">
<path d="M0 1.52588e-05H75V75H0V1.52588e-05Z" fill="white"/>
</mask>
<g mask="url(#mask0_3253_322)">
<path d="M15.875 1.52588e-05H19.2563V3.34064H22.35V1.52588e-05H25.7313V10.1125H22.35V6.72814H19.2563V10.1125H15.8781L15.875 1.52588e-05ZM30.175 3.35314H27.2V1.52588e-05H36.5344V3.35314H33.5562V10.1125H30.175V3.35314ZM38.0156 1.52588e-05H41.5406L43.7094 3.55314L45.875 1.52588e-05H49.4V10.1125H46.0344V5.10002L43.7094 8.69689H43.65L41.3219 5.10314V10.1125H38.0156V1.52588e-05ZM51.0813 1.52588e-05H54.4656V6.77189H59.2156V10.1156H51.0813V1.52588e-05Z" fill="black"/>
<path fill-rule="evenodd" clip-rule="evenodd" d="M15.7688 68.975L9.375 14.7406H65.625L59.2281 68.9688L37.4688 75L15.7688 68.975ZM28.6969 39.2875L28.0906 32.475H53.5438L54.1375 25.825H20.825L22.6187 45.9406H45.6719L44.9 54.5656L37.4813 56.5719H37.475L30.0687 54.5719L29.5938 49.2688H22.9125L23.8438 59.7125L37.4688 63.4938L51.1156 59.7125L52.7781 41.075L52.9406 39.2906H28.6969V39.2875Z" fill="black"/>
</g>
</svg>
