<?xml version="1.0" encoding="utf-8"?>
<!-- Generator: Adobe Illustrator 27.7.0, SVG Export Plug-In . SVG Version: 6.00 Build 0)  -->
<svg version="1.1" id="Calque_1" xmlns="http://www.w3.org/2000/svg" xmlns:xlink="http://www.w3.org/1999/xlink" x="0px" y="0px"
	 viewBox="0 0 50 50" style="enable-background:new 0 0 50 50;" xml:space="preserve">
<style type="text/css">
	.st0{stroke:#000000;stroke-width:0.25;stroke-miterlimit:10;}
	.st1{fill:#FFC81E;}
</style>
<g id="Calque_1_00000010996165597326937580000014454637247773859733_">
	<g>
		<path class="st0" d="M3,30L6.5,5h5.8L8.9,30H3z M17,30l-6.1-13.3L20.3,5h6.2L17,16.6L23.6,30H17z"/>
	</g>
</g>
<g id="Calque_2_00000165920860537420018160000010172028750108576176_">
	<g>
		<path class="st0" d="M44.1,32.8c-0.9,1.4-2.5,2.6-4.7,3.5l4.9,11.1h-6.7l-4-10l-2.5,0l-1.4,10.1h-6.1L27.3,21h8.5
			c3.2,0,5.5,0.6,7.2,1.8c1.7,1.2,2.5,2.9,2.5,5.2C45.4,29.8,45,31.4,44.1,32.8z M31.7,33h2.7c1.6,0,2.8-0.5,3.5-1.4
			c0.7-0.9,1.1-2,1.1-3.3c0-1-0.3-1.8-1-2.2c-0.7-0.5-1.6-0.7-3-0.7h-2.3L31.7,33z"/>
	</g>
	<g>
		<g>
			<path class="st1" d="M23,14.3l5.5-2.8v0.8l-4.6,2.3v0l4.6,2.3v0.8L23,14.9V14.3z"/>
			<path class="st1" d="M30,17.7c0-0.4,0-1,0-1.5V9.4h1v3.6h0c0.4-0.6,1-1.1,1.9-1.1c1.4,0,2.4,1.2,2.4,2.9c0,2-1.3,3-2.5,3
				c-0.8,0-1.5-0.3-1.9-1.1h0l0,0.9L30,17.7L30,17.7z M31.1,15.4c0,0.1,0,0.3,0,0.4c0.2,0.7,0.8,1.2,1.6,1.2c1.1,0,1.7-0.9,1.7-2.2
				c0-1.1-0.6-2.1-1.7-2.1c-0.7,0-1.4,0.5-1.6,1.3c0,0.1-0.1,0.3-0.1,0.4C31.1,14.4,31.1,15.4,31.1,15.4z"/>
			<path class="st1" d="M36.8,13.8c0-0.7,0-1.2,0-1.8h0.9l0,1.1h0c0.3-0.8,0.9-1.2,1.6-1.2c0.1,0,0.2,0,0.3,0v1c-0.1,0-0.2,0-0.3,0
				c-0.7,0-1.2,0.6-1.4,1.3c0,0.1,0,0.3,0,0.5v3h-1L36.8,13.8L36.8,13.8z"/>
			<path class="st1" d="M46,14.9l-5.5,2.8v-0.8l4.6-2.3v0l-4.6-2.3v-0.8l5.5,2.8V14.9z"/>
		</g>
	</g>
</g>
</svg>
