<svg width="76" height="76" viewBox="0 0 76 76" fill="none" xmlns="http://www.w3.org/2000/svg">
<g filter="url(#filter0_i_3285_225)">
<path fill-rule="evenodd" clip-rule="evenodd" d="M30.3131 25.2237C28.1214 24.672 25.9268 24.8491 23.6107 25.2106C23.6107 29.2691 23.6024 33.2185 23.6327 37.1685C23.6339 37.3707 23.9369 37.7226 24.1333 37.7494C26.6589 38.0912 29.1708 38.1186 31.5327 36.9651C33.9762 35.7723 35.2208 33.2782 34.8982 30.3498C34.6054 27.6833 33.0298 25.9078 30.3131 25.2237ZM76 38.5516V2.36279C76 1.11272 76.0137 1 74.8024 1H2.4756C1.29762 1 1 1.11332 1 2.30375V74.7726C1 75.9761 1.15 75.9779 2.31488 75.9779C26.4548 75.9785 50.6667 75.9726 74.8065 76C75.7429 76.0012 75.994 75.7513 75.9917 74.8316C75.9595 62.7383 76 50.6437 76 38.5516ZM33.9476 42.0346C30.6399 43.2167 27.1905 43.2829 23.619 43.0056V56.4659H17.0714V55.6297C17.0714 44.3606 17.0196 33.0927 16.9881 21.8242C16.9845 20.8884 17.1327 20.4363 18.1851 20.329C23.1446 19.8208 28.0762 19.2495 33.0077 20.4083C38.3089 21.653 41.3655 25.1646 41.5976 30.0164C41.8851 36.0246 39.25 40.1398 33.9476 42.0346ZM60.3226 49.6412C60.0702 53.083 58.1333 55.3428 54.9565 56.4355C50.7054 57.8978 46.4774 57.5585 42.3226 55.9041C41.6423 55.6327 41.5107 55.2892 41.7351 54.5943C42.144 53.3264 42.4434 52.0226 42.7589 50.8453C44.5155 51.3618 46.1857 52.0065 47.9161 52.3113C49.1381 52.5266 50.4589 52.4002 51.7012 52.2051C52.8149 52.0298 53.6161 51.2724 53.7988 50.0748C53.9845 48.8575 53.6184 47.8031 52.5458 47.1554C51.6934 46.6413 50.7542 46.2733 49.8536 45.8421C48.4053 45.1484 46.8619 44.6045 45.5262 43.7368C40.2696 40.3211 41.9809 33.9658 45.4887 31.5724C47.3655 30.2925 49.4423 29.7248 51.6655 29.6466C54.2803 29.5548 56.7982 30.0069 59.2714 31.211L57.9649 35.8564C56.9292 35.489 55.9649 35.0119 54.947 34.8223C53.7393 34.5968 52.4726 34.471 51.2536 34.5706C49.619 34.7048 48.6619 35.835 48.6619 37.2365C48.6619 38.0667 48.9762 38.7693 49.6673 39.1719C50.6589 39.7498 51.7113 40.2263 52.7542 40.71C53.8827 41.233 55.0744 41.635 56.1607 42.232C59.0595 43.8244 60.5684 46.2876 60.3226 49.6412Z" fill="black"/>
</g>
<defs>
<filter id="filter0_i_3285_225" x="0" y="0" width="76" height="78" filterUnits="userSpaceOnUse" color-interpolation-filters="sRGB">
<feFlood flood-opacity="0" result="BackgroundImageFix"/>
<feBlend mode="normal" in="SourceGraphic" in2="BackgroundImageFix" result="shape"/>
<feColorMatrix in="SourceAlpha" type="matrix" values="0 0 0 0 0 0 0 0 0 0 0 0 0 0 0 0 0 0 127 0" result="hardAlpha"/>
<feOffset dy="2"/>
<feGaussianBlur stdDeviation="2"/>
<feComposite in2="hardAlpha" operator="arithmetic" k2="-1" k3="1"/>
<feColorMatrix type="matrix" values="0 0 0 0 0 0 0 0 0 0 0 0 0 0 0 0 0 0 0.25 0"/>
<feBlend mode="normal" in2="shape" result="effect1_innerShadow_3285_225"/>
</filter>
</defs>
</svg>
