<svg width="75" height="75" viewBox="0 0 75 75" fill="none" xmlns="http://www.w3.org/2000/svg">
<g clip-path="url(#clip0_3253_365)" filter="url(#filter0_i_3253_365)">
<path d="M59.2172 35.8735C59.2172 31.8985 57.7875 29.1469 56.5641 27.0047L56.1891 26.3954C54.7031 24.0047 53.4047 21.9047 53.4047 19.4579C53.4047 16.5047 55.6453 13.7485 58.8047 13.7485C58.8984 13.7485 58.9875 13.7579 59.0765 13.7625L59.2219 13.7766C53.2977 8.33508 45.544 5.31996 37.5 5.32974C32.1687 5.327 26.9206 6.65078 22.2284 9.18178C17.5363 11.7128 13.5476 15.3715 10.6219 19.8282C11.3719 19.8516 12.0891 19.8704 12.6937 19.8704C16.0547 19.8704 21.2625 19.4625 21.2625 19.4625C22.9969 19.3594 23.2031 21.9047 21.4687 22.111C21.4687 22.111 19.7297 22.3172 17.7891 22.4157L29.5078 57.2625L36.5391 36.1407L31.5234 22.411C29.7937 22.3079 28.1531 22.1063 28.1531 22.1063C26.4187 22.0032 26.625 19.35 28.3547 19.4532C28.3547 19.4532 33.6703 19.861 36.8297 19.861C40.1953 19.861 45.4078 19.4532 45.4078 19.4532C47.1422 19.35 47.3437 21.9 45.6094 22.1063C45.6094 22.1063 43.8656 22.3079 41.9297 22.411L53.5547 56.9907L56.7609 46.2704L57.0141 45.4594C58.2797 41.4282 59.2125 38.4516 59.2125 35.8688L59.2172 35.8735ZM5.32968 37.5C5.32936 43.541 7.02973 49.4601 10.2362 54.5799C13.4427 59.6996 18.0258 63.8133 23.4609 66.45L8.10937 24.4032C6.27107 28.5244 5.32384 32.9874 5.32968 37.5Z" fill="black"/>
<path d="M28.4109 68.3578L38.0672 40.3125L47.9531 67.4063C48.0188 67.561 48.0938 67.7063 48.1828 67.8469C41.8099 70.0921 34.8913 70.2709 28.4109 68.3578ZM65.7234 22.0641C65.8641 23.0906 65.9438 24.1875 65.9438 25.3735C65.9438 28.636 65.3344 32.3063 63.4969 36.8953L53.6719 65.3016C60.9221 61.0892 66.2401 54.2114 68.4923 46.1345C70.7444 38.0575 69.7526 29.4203 65.7281 22.0641H65.7234Z" fill="black"/>
<path fill-rule="evenodd" clip-rule="evenodd" d="M0 37.5C0 16.8234 16.8234 0 37.5 0C58.1719 0 75 16.8234 75 37.5C75 58.1766 58.1719 75 37.5 75C16.8234 75 0 58.1766 0 37.5ZM1.72031 37.5C1.72031 57.2297 17.7703 73.2797 37.5 73.2797C57.225 73.2797 73.275 57.2297 73.275 37.5C73.275 17.7656 57.225 1.72031 37.5 1.72031C17.7656 1.72031 1.72031 17.7656 1.72031 37.5Z" fill="black"/>
</g>
<defs>
<filter id="filter0_i_3253_365" x="0" y="0" width="75" height="77" filterUnits="userSpaceOnUse" color-interpolation-filters="sRGB">
<feFlood flood-opacity="0" result="BackgroundImageFix"/>
<feBlend mode="normal" in="SourceGraphic" in2="BackgroundImageFix" result="shape"/>
<feColorMatrix in="SourceAlpha" type="matrix" values="0 0 0 0 0 0 0 0 0 0 0 0 0 0 0 0 0 0 127 0" result="hardAlpha"/>
<feOffset dy="2"/>
<feGaussianBlur stdDeviation="2"/>
<feComposite in2="hardAlpha" operator="arithmetic" k2="-1" k3="1"/>
<feColorMatrix type="matrix" values="0 0 0 0 0 0 0 0 0 0 0 0 0 0 0 0 0 0 0.25 0"/>
<feBlend mode="normal" in2="shape" result="effect1_innerShadow_3253_365"/>
</filter>
<clipPath id="clip0_3253_365">
<rect width="75" height="75" fill="white"/>
</clipPath>
</defs>
</svg>
