<svg width="170" height="170" viewBox="0 0 170 170" fill="none" xmlns="http://www.w3.org/2000/svg">
<path d="M165.49 148.51C167.744 150.764 169.011 153.822 169.011 157.01C169.011 160.198 167.744 163.255 165.49 165.51C163.236 167.764 160.178 169.031 156.99 169.031C153.802 169.031 150.744 167.764 148.49 165.51L85.0001 102L21.4901 165.49C19.2357 167.744 16.1782 169.011 12.9901 169.011C9.80194 169.011 6.7444 167.744 4.49006 165.49C2.23571 163.235 0.969238 160.178 0.969238 156.99C0.969238 153.802 2.23571 150.744 4.49006 148.49L68.0001 84.9998L4.51005 21.4898C2.25571 19.2355 0.989239 16.1779 0.989239 12.9898C0.989239 9.80168 2.25571 6.74414 4.51005 4.4898C6.76439 2.23546 9.82193 0.968983 13.0101 0.968983C16.1982 0.968983 19.2557 2.23546 21.5101 4.4898L85.0001 67.9998L148.51 4.4798C150.764 2.22546 153.822 0.958984 157.01 0.958984C160.198 0.958984 163.256 2.22546 165.51 4.4798C167.764 6.73414 169.031 9.79168 169.031 12.9798C169.031 16.1679 167.764 19.2255 165.51 21.4798L102 84.9998L165.49 148.51Z" fill="white"/>
</svg>
