<svg width="49" height="48" viewBox="0 0 49 48" fill="none" xmlns="http://www.w3.org/2000/svg">
<g clip-path="url(#clip0_3294_77)">
<path d="M19.994 25.586C20.3615 25.2273 20.8545 25.0191 21.373 25.0035C21.8914 24.988 22.3965 25.1664 22.7856 25.5025C23.1746 25.8386 23.4185 26.3071 23.4677 26.8129C23.5169 27.3188 23.3677 27.824 23.0504 28.226L22.881 28.414L13.0953 38H18.375C18.8954 38.0006 19.3959 38.1958 19.7743 38.5457C20.1527 38.8956 20.3804 39.3739 20.4109 39.8828C20.4414 40.3917 20.2724 40.8928 19.9384 41.2837C19.6044 41.6746 19.1306 41.9258 18.6139 41.986L18.375 42H8.16667C7.66659 41.9999 7.18394 41.8201 6.81024 41.4946C6.43654 41.169 6.1978 40.7205 6.13929 40.234L6.125 40V30C6.12558 29.4902 6.32484 28.9999 6.68207 28.6293C7.03929 28.2586 7.52753 28.0355 8.04701 28.0057C8.5665 27.9758 9.07802 28.1413 9.47707 28.4685C9.87612 28.7957 10.1326 29.2598 10.194 29.766L10.2083 30V35.172L19.994 25.586ZM40.8333 6C41.3334 6.00006 41.8161 6.17991 42.1898 6.50543C42.5635 6.83095 42.8022 7.2795 42.8607 7.766L42.875 8V18C42.8744 18.5098 42.6752 19.0001 42.3179 19.3707C41.9607 19.7414 41.4725 19.9645 40.953 19.9943C40.4335 20.0242 39.922 19.8587 39.5229 19.5315C39.1239 19.2043 38.8674 18.7402 38.806 18.234L38.7917 18V12.828L29.006 22.414C28.6385 22.7727 28.1455 22.9809 27.6271 22.9965C27.1086 23.012 26.6035 22.8336 26.2144 22.4975C25.8254 22.1614 25.5815 21.6929 25.5323 21.1871C25.4831 20.6812 25.6323 20.176 25.9496 19.774L26.119 19.586L35.9048 10H30.625C30.1046 9.99943 29.6041 9.80424 29.2257 9.4543C28.8473 9.10437 28.6196 8.62609 28.5891 8.11721C28.5586 7.60833 28.7276 7.10724 29.0616 6.71633C29.3956 6.32543 29.8694 6.07421 30.3861 6.014L30.625 6H40.8333Z" fill="#D9D9D9"/>
</g>
<defs>
<clipPath id="clip0_3294_77">
<rect width="49" height="48" fill="white"/>
</clipPath>
</defs>
</svg>
